<svg width="42" height="35" viewBox="0 0 42 35" fill="none" xmlns="http://www.w3.org/2000/svg">
<mask id="path-1-inside-1_1_22" fill="white">
<path fill-rule="evenodd" clip-rule="evenodd" d="M6.73372 20.829L3.71749 17.9148C-0.316596 14.0172 -0.427223 7.58729 3.4704 3.55321C7.36802 -0.480881 13.7979 -0.591506 17.832 3.30612L20.8483 6.22031L23.7625 3.20408C27.6601 -0.830001 34.09 -0.940627 38.1241 2.957C42.1582 6.85462 42.2688 13.2845 38.3712 17.3186L35.457 20.3349L21.3424 34.9436L6.73372 20.829Z"/>
</mask>
<path fill-rule="evenodd" clip-rule="evenodd" d="M6.73372 20.829L3.71749 17.9148C-0.316596 14.0172 -0.427223 7.58729 3.4704 3.55321C7.36802 -0.480881 13.7979 -0.591506 17.832 3.30612L20.8483 6.22031L23.7625 3.20408C27.6601 -0.830001 34.09 -0.940627 38.1241 2.957C42.1582 6.85462 42.2688 13.2845 38.3712 17.3186L35.457 20.3349L21.3424 34.9436L6.73372 20.829Z" fill="white"/>
<path d="M6.73372 20.829L5.34404 22.2674L5.34404 22.2674L6.73372 20.829ZM3.71749 17.9148L5.10717 16.4765L5.10717 16.4765L3.71749 17.9148ZM3.4704 3.55321L4.90873 4.94288L4.90873 4.94288L3.4704 3.55321ZM17.832 3.30612L16.4424 4.74445L16.4424 4.74445L17.832 3.30612ZM20.8483 6.22031L19.4586 7.65865L20.8969 9.04832L22.2866 7.60999L20.8483 6.22031ZM23.7625 3.20408L22.3241 1.81441L22.3241 1.81441L23.7625 3.20408ZM38.1241 2.957L36.7344 4.39533L36.7344 4.39533L38.1241 2.957ZM38.3712 17.3186L36.9328 15.9289L36.9328 15.929L38.3712 17.3186ZM35.457 20.3349L34.0186 18.9452L34.0186 18.9452L35.457 20.3349ZM21.3424 34.9436L19.9528 36.3819L21.3911 37.7716L22.7808 36.3333L21.3424 34.9436ZM8.12339 19.3907L5.10717 16.4765L2.32781 19.3532L5.34404 22.2674L8.12339 19.3907ZM5.10717 16.4765C1.86745 13.3464 1.77861 8.1826 4.90873 4.94288L2.03207 2.16353C-2.63305 6.99198 -2.50064 14.688 2.32781 19.3532L5.10717 16.4765ZM4.90873 4.94288C8.03886 1.70316 13.2026 1.61432 16.4424 4.74445L19.2217 1.86778C14.3933 -2.79734 6.69719 -2.66493 2.03207 2.16353L4.90873 4.94288ZM16.4424 4.74445L19.4586 7.65865L22.2379 4.78198L19.2217 1.86778L16.4424 4.74445ZM22.2866 7.60999L25.2008 4.59376L22.3241 1.81441L19.4099 4.83064L22.2866 7.60999ZM25.2008 4.59376C28.3309 1.35404 33.4947 1.2652 36.7344 4.39533L39.5138 1.51866C34.6853 -3.14646 26.9892 -3.01405 22.3241 1.81441L25.2008 4.59376ZM36.7344 4.39533C39.9741 7.52545 40.063 12.6892 36.9328 15.9289L39.8095 18.7083C44.4746 13.8798 44.3422 6.18378 39.5138 1.51866L36.7344 4.39533ZM36.9328 15.929L34.0186 18.9452L36.8953 21.7245L39.8095 18.7083L36.9328 15.929ZM34.0186 18.9452L19.9041 33.5539L22.7808 36.3333L36.8953 21.7245L34.0186 18.9452ZM22.7321 33.5052L8.12339 19.3907L5.34404 22.2674L19.9528 36.3819L22.7321 33.5052Z" fill="black" mask="url(#path-1-inside-1_1_22)"/>
</svg>
